# xmcd
#
# Track frame offsets: 
#        150
#        9767
#        26559
#        35835
#        41859
#        50990
#
# Disc length: 942 seconds
#
# Revision: 0
# Processed by: cddbd v1.5.2PL0 Copyright (c) Steve Scherf et al.
# Submitted via: ExactAudioCopy v0.99pb3
#
DISCID=4c03ac06
DTITLE=Jigsaw Jackson - Jigsaw Jackson
DYEAR=2007
DGENRE=Blues
TTITLE0=Virus
TTITLE1=Frieden Mann
TTITLE2=Sell Out
TTITLE3=Canned Evil
TTITLE4=Pay and Lose
TTITLE5=Wild Cave
EXTD=
EXTT0=
EXTT1=
EXTT2=
EXTT3=
EXTT4=
EXTT5=
PLAYORDER=
